<svg id="visual" viewBox="0 0 900 600" width="900" height="600" xmlns="http://www.w3.org/2000/svg" xmlns:xlink="http://www.w3.org/1999/xlink" version="1.1"><path d="M0 287L18.8 286.8C37.7 286.7 75.3 286.3 112.8 280.2C150.3 274 187.7 262 225.2 260.2C262.7 258.3 300.3 266.7 337.8 266.7C375.3 266.7 412.7 258.3 450.2 265C487.7 271.7 525.3 293.3 562.8 294.2C600.3 295 637.7 275 675.2 274.5C712.7 274 750.3 293 787.8 295.7C825.3 298.3 862.7 284.7 881.3 277.8L900 271L900 601L881.3 601C862.7 601 825.3 601 787.8 601C750.3 601 712.7 601 675.2 601C637.7 601 600.3 601 562.8 601C525.3 601 487.7 601 450.2 601C412.7 601 375.3 601 337.8 601C300.3 601 262.7 601 225.2 601C187.7 601 150.3 601 112.8 601C75.3 601 37.7 601 18.8 601L0 601Z" fill="#ffffff" stroke-linecap="round" stroke-linejoin="miter"></path></svg>