<svg id="visual" viewBox="0 0 540 960" width="540" height="960" xmlns="http://www.w3.org/2000/svg" xmlns:xlink="http://www.w3.org/1999/xlink" version="1.1"><rect x="0" y="0" width="540" height="960" fill="#002233"></rect><path d="M237 960L250.8 920C264.7 880 292.3 800 314.3 720C336.3 640 352.7 560 332.7 480C312.7 400 256.3 320 236 240C215.7 160 231.3 80 239.2 40L247 0L540 0L540 40C540 80 540 160 540 240C540 320 540 400 540 480C540 560 540 640 540 720C540 800 540 880 540 920L540 960Z" fill="#ffffff" stroke-linecap="round" stroke-linejoin="miter"></path></svg>